<svg xmlns="http://www.w3.org/2000/svg" width="16" height="16" viewBox="0 0 16 16">
    <g fill="none" fill-rule="nonzero">
        <path fill="#FF0098" d="M14.893 2H1.108C.443 2 0 1.601 0 1c0-.6.443-1 1.108-1h13.784c.665 0 1.107.4 1.107 1 .001.601-.441 1-1.106 1z"/>
        <path fill="#4C1E87" d="M14.893 9H1.108C.443 9 0 8.6 0 8s.443-1 1.108-1h13.784c.665 0 1.107.4 1.107 1s-.441 1-1.106 1zM14.893 16H1.108C.443 16 0 15.6 0 15c0-.601.443-1 1.108-1h13.784c.665 0 1.107.399 1.107 1 .001.6-.441 1-1.106 1z"/>
    </g>
</svg>
