<svg xmlns="http://www.w3.org/2000/svg" width="16" height="16" viewBox="0 0 16 16">
    <g fill="#FFF" fill-rule="nonzero">
        <path d="M8.575 2H7.427C6.571 2 6 1.601 6 1c0-.6.571-1 1.427-1h1.148C9.431 0 10 .4 10 1c0 .601-.569 1-1.425 1zM2.575 9H1.427C.571 9 0 8.6 0 8s.571-1 1.427-1h1.148C3.431 7 4 7.4 4 8s-.569 1-1.425 1zM2.575 16H1.427C.571 16 0 15.6 0 15s.571-1 1.427-1h1.148C3.431 14 4 14.4 4 15s-.569 1-1.425 1zM8.575 16H7.427C6.571 16 6 15.6 6 15s.571-1 1.427-1h1.148c.856 0 1.425.4 1.425 1s-.569 1-1.425 1zM14.574 16h-1.147C12.571 16 12 15.6 12 15s.57-1 1.427-1h1.147c.856 0 1.426.4 1.426 1s-.569 1-1.426 1zM8.575 9H7.427C6.571 9 6 8.6 6 8s.571-1 1.427-1h1.148C9.431 7 10 7.4 10 8s-.569 1-1.425 1zM14.574 9h-1.147C12.571 9 12 8.6 12 8s.57-1 1.427-1h1.147C15.43 7 16 7.4 16 8s-.569 1-1.426 1zM2.575 2H1.427C.571 2 0 1.6 0 1s.571-1 1.427-1h1.148C3.431 0 4 .4 4 1s-.569 1-1.425 1zM14.574 2h-1.147C12.571 2 12 1.6 12 1s.57-1 1.427-1h1.147C15.43 0 16 .4 16 1s-.569 1-1.426 1z"/>
    </g>
</svg>
